<svg id="Layer_1" data-name="Layer 1" xmlns="http://www.w3.org/2000/svg" viewBox="0 0 128 128"><defs><style>.cls-1{fill:#8bffc2;}.cls-2{fill:#ff5c65;}.cls-3{fill:#ff73e7;}.cls-4{fill:#ffd4a2;}</style></defs><title>tiles</title><rect class="cls-1" x="0.5" y="0.5" width="63" height="64"/><path d="M63,1V64H1V1H63m1-1H0V65H64V0Z"/><rect class="cls-2" x="64.5" y="65.5" width="63" height="62"/><path d="M127,66v61H65V66h62m1-1H64v63h64V65Z"/><rect class="cls-3" x="0.5" y="65.5" width="63" height="62"/><path d="M63,66v61H1V66H63m1-1H0v63H64V65Z"/><rect class="cls-4" x="64.5" y="0.5" width="63" height="64"/><path d="M127,1V64H65V1h62m1-1H64V65h64V0Z"/></svg>